<svg width="380" height="140" viewBox="0 0 380 140" fill="none" xmlns="http://www.w3.org/2000/svg">
<rect width="380" height="140" fill="white"/>
<path fill-rule="evenodd" clip-rule="evenodd" d="M209.825 80.2197C216.549 80.2197 222 85.6711 222 92.3948C222 99.1184 216.549 104.57 209.825 104.57C203.101 104.57 197.65 99.1184 197.65 92.3948C197.65 85.6711 203.101 80.2197 209.825 80.2197ZM162.369 36H215.533C216.744 36 217.826 36.4966 218.619 37.2833C219.411 38.0757 219.902 39.1749 219.902 40.369V79.433C218.529 78.3672 216.978 77.5135 215.299 76.9332V41.4291C215.299 41.1892 215.209 40.9883 215.042 40.8432C214.897 40.6982 214.674 40.5866 214.456 40.5866H163.407C163.167 40.5866 162.966 40.6759 162.821 40.8432C162.676 40.9883 162.564 41.2059 162.564 41.4291V80.4987H162.581L180.42 63.419C181.134 62.7606 182.255 62.8331 182.897 63.5473C182.914 63.5641 182.914 63.5864 182.936 63.5864L197.934 81.3301C195.295 84.2204 193.683 88.0704 193.683 92.2943C193.683 94.1301 193.99 95.8933 194.548 97.5393H162.369C161.158 97.5393 160.076 97.0427 159.283 96.256C158.491 95.4692 158 94.3644 158 93.1704V40.369C158 39.1582 158.497 38.0757 159.283 37.2833C160.07 36.491 161.175 36 162.369 36ZM199.14 80.136L201.21 67.4197C201.377 66.4656 202.275 65.8016 203.23 65.969C203.598 66.0248 203.927 66.2089 204.184 66.4488L213.725 76.4757C212.509 76.1855 211.248 76.0349 209.942 76.0349C205.796 76.0293 202.013 77.5805 199.14 80.136ZM203.603 46.0101C205.35 46.0101 206.946 46.7243 208.084 47.8626C209.239 49.0176 209.937 50.5967 209.937 52.3432C209.937 54.0896 209.222 55.6854 208.084 56.8237C206.929 57.9787 205.35 58.6762 203.603 58.6762C201.857 58.6762 200.261 57.962 199.123 56.8237C197.968 55.6687 197.27 54.0896 197.27 52.3432C197.27 50.5967 197.985 49.0009 199.123 47.8626C200.278 46.7076 201.863 46.0101 203.603 46.0101ZM205.746 84.9904L216.883 97.0427C217.765 95.7092 218.278 94.1133 218.278 92.3948C218.278 87.7301 214.495 83.947 209.831 83.947C208.346 83.9414 206.957 84.3208 205.746 84.9904ZM213.904 99.7935L202.767 87.7412C201.885 89.0748 201.372 90.6706 201.372 92.3892C201.372 97.0539 205.155 100.837 209.819 100.837C211.304 100.843 212.693 100.463 213.904 99.7935Z" fill="black" stroke="black" stroke-width="0.5" stroke-miterlimit="2.6131"/>
</svg>
