<svg width="40" height="30" viewBox="0 0 40 30" fill="none" xmlns="http://www.w3.org/2000/svg">
<path d="M20.1843 29.707C20.3176 28.7974 20.7489 27.9897 21.0704 27.1506C23.0073 22.1163 24.9677 17.0977 26.9124 12.0712C27.1477 11.4596 27.4692 10.8715 27.5946 10.2128C31.6958 10.2206 35.797 10.2206 39.8981 10.2285C39.8981 10.2598 39.8981 10.2912 39.906 10.3304C39.0826 11.2165 38.2122 12.0634 37.3182 12.8789C36.5105 13.6239 35.7656 14.4315 34.9814 15.2C31.4998 18.6268 28.0259 22.0614 24.5364 25.4882C23.1014 26.8997 21.635 28.2955 20.1843 29.707Z" fill="#6DBCDA"/>
<path d="M12.3033 10.1893C12.4287 11.0989 12.8757 11.9066 13.2051 12.7457C15.3537 18.2426 17.5336 23.7239 19.6979 29.213C19.7685 29.3856 19.792 29.5738 19.8391 29.762C19.4235 29.5816 19.1882 29.1895 18.8824 28.8837C17.1494 27.1821 15.4321 25.4648 13.6991 23.7631C11.5113 21.6067 9.31563 19.4581 7.12782 17.3017C4.92433 15.1374 2.72084 12.9652 0.517353 10.801C0.368363 10.6598 0.188006 10.5422 0.117432 10.3305C1.36425 10.205 2.61106 10.2128 3.86572 10.2128C6.4064 10.2207 8.95492 10.2128 11.4956 10.2128C11.6995 10.2128 11.9112 10.2677 12.1072 10.1344C12.1778 10.1344 12.2562 10.1266 12.3268 10.1266C12.3111 10.1501 12.3033 10.1658 12.3033 10.1893Z" fill="#6DBCDA"/>
<path d="M12.3035 10.1893C12.3035 10.1658 12.3035 10.1423 12.3113 10.1187C14.06 7.84467 15.8165 5.57844 17.5495 3.30438C18.318 2.30066 19.157 1.35966 19.8314 0.285366C19.9098 0.277524 19.9882 0.269682 20.0666 0.261841C22.5681 3.53963 25.0774 6.81742 27.5789 10.0952C27.5789 10.1344 27.5789 10.1736 27.5867 10.205C22.7328 10.205 17.8867 10.205 13.0327 10.1971C12.7975 10.205 12.5544 10.1971 12.3035 10.1893Z" fill="#6DBCDA"/>
<path d="M31.1233 0.29316C30.8567 0.418626 30.8645 0.693082 30.7861 0.920488C29.798 3.81404 28.8178 6.71543 27.8455 9.61682C27.7828 9.79718 27.7514 9.98538 27.5867 10.1108C25.0852 6.82521 22.5759 3.54742 20.0745 0.261794C20.2156 0.128487 20.396 0.175537 20.5606 0.175537C23.9012 0.175537 27.2417 0.175537 30.59 0.175537C30.7704 0.183378 30.9743 0.112804 31.1233 0.29316Z" fill="#D6F7F8"/>
<path d="M27.5239 10.1343C27.7905 10.0089 27.7827 9.73441 27.8611 9.507C28.8492 6.61345 29.8294 3.71206 30.8017 0.810671C30.8644 0.630314 30.8958 0.442116 31.0605 0.31665C33.7502 3.40624 37.4357 7.09179 39.9842 10.15C39.8431 10.2833 39.6627 10.2363 39.498 10.2363C36.1575 10.2363 31.4055 10.2363 28.0572 10.2363C27.8768 10.2441 27.6729 10.3147 27.5239 10.1343Z" fill="white"/>
<path d="M12.4603 10.1344C12.1937 10.009 12.2015 9.7345 12.1231 9.5071C11.1351 6.61355 10.1627 3.71216 9.18251 0.818606C9.11978 0.638249 9.08841 0.450051 8.92374 0.324585C6.23407 3.41418 2.54852 7.09973 0 10.158C0.141149 10.2913 0.321506 10.2442 0.486179 10.2442C3.8267 10.2442 8.57871 10.2442 11.9271 10.2442C12.1074 10.2442 12.3113 10.3148 12.4603 10.1344Z" fill="white"/>
<path d="M12.0917 10.1344C11.9035 8.96595 11.4252 7.89165 11.0723 6.77815C10.4293 4.77854 9.77843 2.78677 9.11974 0.795007C9.06485 0.622491 9.04917 0.41861 8.89233 0.285303C9.04917 0.120629 9.24521 0.183362 9.42556 0.183362C12.719 0.183362 16.0125 0.183362 19.2981 0.183362C19.4785 0.183362 19.6824 0.120629 19.8314 0.293144C19.157 1.36744 18.3101 2.30843 17.5495 3.31216C15.8165 5.58622 14.0599 7.85245 12.3113 10.1265C12.2407 10.1265 12.1701 10.1265 12.0917 10.1344Z" fill="#D6F7F8"/>
<path d="M0 10.1971C0.039208 10.2364 0.078416 10.2834 0.117624 10.3226C0.0470496 10.3148 0.0078416 10.2756 0 10.1971Z" fill="#7AC1DC"/>
<path d="M39.8982 10.2284C39.9296 10.2206 39.9688 10.2206 40.0001 10.2206C39.9688 10.2598 39.9374 10.2912 39.906 10.3304C39.8982 10.2912 39.8982 10.2598 39.8982 10.2284Z" fill="#7BC1DC"/>
<path d="M20.0667 29.8246C20.1059 29.7775 20.1451 29.7383 20.1921 29.6913C20.1451 29.7383 20.1059 29.7854 20.0667 29.8246Z" fill="#6DBCDA"/>
<path d="M12.2017 10.1187C12.2017 10.1658 12.2017 10.205 12.2095 10.252C13.9817 14.7609 15.7617 19.262 17.5261 23.7866C18.3024 25.7784 19.1572 27.6525 19.8394 29.7854C19.9178 29.8011 19.9962 29.8168 20.0746 29.8325C22.6153 23.3161 25.156 16.8076 27.6967 10.2912C27.6967 10.2128 27.6967 10.1422 27.7045 10.0717C22.78 10.0717 17.8633 10.0795 12.9388 10.0795C12.7035 10.0873 12.4526 10.1109 12.2017 10.1187Z" fill="white"/>
</svg>
