<svg width="24" height="24" viewBox="0 0 24 24" fill="none" xmlns="http://www.w3.org/2000/svg">
<path fill-rule="evenodd" clip-rule="evenodd" d="M7.86914 11.9999C7.86914 9.35928 8.69914 6.24365 12.0004 6.24365C15.302 6.24365 16.1316 9.35928 16.1316 11.9999C16.1316 14.6405 15.302 17.7562 12.0004 17.7562C8.70039 17.7562 7.86852 14.6412 7.86914 11.9999ZM12.3723 8.4624C12.2566 8.43428 12.1348 8.41553 12.0004 8.41553V8.41428C10.3026 8.41428 10.2223 10.8365 10.2223 11.9999C10.2223 12.3737 10.2316 12.8749 10.2991 13.3862L12.4973 9.34678C12.7254 8.95115 12.6098 8.66865 12.3723 8.4624ZM13.7816 11.9999C13.7816 11.5446 13.7816 10.8968 13.6463 10.2771L11.1879 14.5218C10.8457 15.0362 11.0838 15.3271 11.462 15.4874C11.4941 15.4999 11.5316 15.5124 11.566 15.5218C11.5879 15.5312 11.6066 15.5368 11.6301 15.5437C11.7441 15.5718 11.8676 15.5858 12.0004 15.5858C13.7004 15.5858 13.7816 13.1624 13.7816 11.9999Z" fill="black"/>
<path fill-rule="evenodd" clip-rule="evenodd" d="M4.9625 4.90625C6.86687 2.96563 9.20625 2 11.9791 2C14.7791 2 17.1641 2.975 19.1281 4.92719C20.0688 5.86781 20.7837 6.94125 21.2719 8.15625C21.7594 9.35938 22 10.6438 22 12C22 13.3687 21.7594 14.6562 21.2719 15.8594C20.7969 17.0491 20.0844 18.1 19.1437 19.0156C18.1656 19.9813 17.0625 20.7188 15.825 21.2313C14.5844 21.7406 13.3 22 11.9781 22C10.6562 22 9.39062 21.75 8.175 21.25C6.97344 20.7375 5.89062 20.0031 4.92812 19.0531C3.975 18.0875 3.25 17.0062 2.75 15.8031C2.25 14.6 2 13.3344 2 12C2 10.6781 2.25 9.4125 2.75 8.19687C3.26125 6.96875 3.99687 5.87187 4.9625 4.90625ZM17.8188 6.20937C16.2125 4.60313 14.2828 3.8 12.0209 3.8C9.73438 3.8 7.80937 4.62187 6.25 6.19375C5.46563 6.99219 4.85938 7.89062 4.43125 8.89062C4.0125 9.87813 3.8 10.9156 3.8 12C3.8 13.0719 4.0125 14.1031 4.43 15.1031C4.85938 16.0906 5.46469 16.9781 6.25 17.7625C7.03656 18.5375 7.925 19.1325 8.91187 19.55C9.89969 19.9541 11.0625 20.1581 12.0209 20.1581C13.0938 20.1581 14.1219 19.9531 15.125 19.5344C16.1344 19.1181 17.0438 18.5156 17.8531 17.7281C19.4141 16.2031 20.2 14.2969 20.2 12C20.2 10.9 19.9969 9.84375 19.5909 8.85625C19.1875 7.86812 18.5938 6.98438 17.8188 6.20937Z" fill="black"/>
</svg>
