<svg xmlns="http://www.w3.org/2000/svg" width="24" height="24" viewBox="0 0 24 24"><g clip-path="url(#clip0_585_10483)"><path d="M7.5 22C6.53333 22 5.70833 21.6583 5.025 20.975C4.34167 20.2917 4 19.4667 4 18.5V5.5C4 4.53333 4.34167 3.70833 5.025 3.025C5.70833 2.34167 6.53333 2 7.5 2H18C18.55 2 19.0208 2.19583 19.4125 2.5875C19.8042 2.97917 20 3.45 20 4V16.525C20 16.6583 19.9458 16.7792 19.8375 16.8875C19.7292 16.9958 19.5333 17.1167 19.25 17.25C19.0167 17.3667 18.8333 17.5333 18.7 17.75C18.5667 17.9667 18.5 18.2167 18.5 18.5C18.5 18.7833 18.5667 19.0375 18.7 19.2625C18.8333 19.4875 19.0167 19.65 19.25 19.75C19.4833 19.85 19.6667 19.9875 19.8 20.1625C19.9333 20.3375 20 20.525 20 20.725V20.975C20 21.2583 19.9042 21.5 19.7125 21.7C19.5208 21.9 19.2833 22 19 22H7.5ZM9 15C9.28333 15 9.52083 14.9042 9.7125 14.7125C9.90417 14.5208 10 14.2833 10 14V5C10 4.71667 9.90417 4.47917 9.7125 4.2875C9.52083 4.09583 9.28333 4 9 4C8.71667 4 8.47917 4.09583 8.2875 4.2875C8.09583 4.47917 8 4.71667 8 5V14C8 14.2833 8.09583 14.5208 8.2875 14.7125C8.47917 14.9042 8.71667 15 9 15ZM7.5 20H16.825C16.725 19.7667 16.6458 19.5292 16.5875 19.2875C16.5292 19.0458 16.5 18.7833 16.5 18.5C16.5 18.2333 16.525 17.975 16.575 17.725C16.625 17.475 16.7083 17.2333 16.825 17H7.5C7.06667 17 6.70833 17.1458 6.425 17.4375C6.14167 17.7292 6 18.0833 6 18.5C6 18.9333 6.14167 19.2917 6.425 19.575C6.70833 19.8583 7.06667 20 7.5 20Z" fill="currentColor"/><circle cx="6.00001" cy="18" r="4.8" fill="white"/><path d="M4.44694 19.656L4.80049 20.0086L5.15355 19.6556L9.35275 15.4564L9.49414 15.5988L4.8 20.2929L2.50711 18L2.64649 17.8606L4.44694 19.656ZM6 11.5C2.41186 11.5 -0.5 14.4119 -0.5 18C-0.5 21.5881 2.41186 24.5 6 24.5C9.58814 24.5 12.5 21.5881 12.5 18C12.5 14.4119 9.58814 11.5 6 11.5Z" fill="currentColor" stroke="white"/></g><defs><clipPath id="clip0_585_10483"><rect width="24" height="24" fill="white" /></clipPath></defs></svg>
