<svg width="24" height="24" viewBox="0 0 24 24" fill="none" xmlns="http://www.w3.org/2000/svg">
<path d="M11.8889 10.3331C11.3224 9.30205 10.3559 8.8917 9.23406 8.8917C7.60112 8.8917 6.30141 10.0447 6.30141 11.9963C6.30141 13.9811 7.52327 15.1013 9.28944 15.1013C10.4227 15.1013 11.3892 14.4802 11.9221 13.5379L10.6781 12.9058C10.4002 13.5707 9.97806 13.7707 9.44514 13.7707C8.52297 13.7707 8.10081 13.0056 8.10081 11.9963C8.10081 10.9877 8.45652 10.2223 9.44514 10.2223C9.7116 10.2223 10.2448 10.3663 10.5559 11.0319L11.8889 10.3331Z" fill="black"/>
<path d="M15.0167 8.8917C16.1383 8.8917 17.1046 9.30205 17.671 10.3331L16.3383 11.0319C16.0273 10.3663 15.4941 10.2223 15.2277 10.2223C14.2392 10.2223 13.8836 10.9877 13.8836 11.9963C13.8836 13.0056 14.3057 13.7707 15.2277 13.7707C15.7605 13.7707 16.1826 13.5707 16.4604 12.9058L17.7042 13.5379C17.1714 14.4802 16.2051 15.1013 15.072 15.1013C13.3062 15.1013 12.0845 13.9811 12.0845 11.9963C12.0845 10.0447 13.384 8.8917 15.0167 8.8917Z" fill="black"/>
<path fill-rule="evenodd" clip-rule="evenodd" d="M11.9864 2C9.24294 2 6.82873 3.0139 4.96309 4.90412C3.04247 6.84924 2 9.36995 2 11.9998C2 14.6575 3.01498 17.1233 4.9356 19.041C6.85622 20.959 9.35259 22 11.9864 22C14.6199 22 17.1716 20.959 19.1469 19.0138C21.0125 17.1782 22 14.7399 22 11.9998C22 9.28759 21.0125 6.8221 19.1194 4.93157C17.1991 3.01358 14.7299 2 11.9864 2ZM12.0136 3.80817C14.2635 3.80817 16.2663 4.65735 17.8298 6.21938C19.3662 7.75333 20.189 9.78081 20.189 11.9998C20.189 14.2463 19.3934 16.2192 17.8573 17.726C16.2385 19.3149 14.1535 20.1644 12.0136 20.1644C9.84649 20.1644 7.81622 19.3152 6.25235 17.7532C4.68849 16.1915 3.81066 14.1368 3.81066 11.9998C3.81066 9.83572 4.68849 7.7811 6.25235 6.19161C7.78872 4.63021 9.76401 3.80817 12.0136 3.80817Z" fill="black"/>
</svg>
