<svg
   width="57"
   height="57"
   viewBox="0 0 57 57"
   fill="none"
   xmlns="http://www.w3.org/2000/svg">
  <path
     d="m 28.5,0.5 c -15.446191,0 -28,12.553809 -28,28 0,15.446191 12.553809,28 28,28 15.446191,0 28,-12.553809 28,-28 0,-15.446191 -12.553809,-28 -28,-28 z m 0,3 c 13.824872,0 25,11.175128 25,25 0,13.824872 -11.175128,25 -25,25 -13.824872,0 -25,-11.175128 -25,-25 0,-13.824872 11.175128,-25 25,-25 z"
    />
  <path
     d="M 43.28125,16.386719 22.236328,37.431641 13.71875,28.912109 11.597656,31.035156 22.236328,41.673828 45.402344,18.507812 Z"
     />
</svg>
