<svg width="24" height="24" viewBox="0 0 20 20" fill="none" xmlns="http://www.w3.org/2000/svg">
    <path d="M10 -6.10352e-05C4.48 -6.10352e-05 0 4.47994 0 9.99994C0 15.5199 4.48 19.9999 10 19.9999C15.52 19.9999 20 15.5199 20 9.99994C20 4.47994 15.52 -6.10352e-05 10 -6.10352e-05ZM10 17.9999C5.59 17.9999 2 14.4099 2 9.99994C2 5.58994 5.59 1.99994 10 1.99994C14.41 1.99994 18 5.58994 18 9.99994C18 14.4099 14.41 17.9999 10 17.9999ZM4.5 15.4999L12.01 12.0099L15.5 4.49994L7.99 7.98994L4.5 15.4999ZM10 8.89994C10.61 8.89994 11.1 9.38994 11.1 9.99994C11.1 10.6099 10.61 11.0999 10 11.0999C9.39 11.0999 8.9 10.6099 8.9 9.99994C8.9 9.38994 9.39 8.89994 10 8.89994Z" fill="black"/>
</svg>
