<svg width="24" height="24" viewBox="0 0 24 24" fill="none" xmlns="http://www.w3.org/2000/svg">
<path d="M11.146 0H15.07V18.165C13.057 18.547 11.579 18.7 9.974 18.7C5.183 18.7 2.686 16.534 2.686 12.38C2.686 8.379 5.336 5.78 9.439 5.78C10.076 5.78 10.56 5.831 11.146 5.984V0ZM11.146 9.143C10.7195 8.99891 10.2711 8.92989 9.821 8.939C7.833 8.939 6.687 10.162 6.687 12.303C6.687 14.393 7.783 15.539 9.796 15.539C10.229 15.539 10.586 15.514 11.146 15.437V9.143ZM21.314 6.06V15.157C21.314 18.291 21.085 19.795 20.397 21.094C19.76 22.343 18.919 23.133 17.186 23.999L13.542 22.266C15.275 21.451 16.116 20.737 16.651 19.641C17.212 18.52 17.39 17.22 17.39 13.806V6.059L21.314 6.06ZM17.39 0.021H21.314V4.047H17.39V0.021Z" fill="black"/>
</svg>
