<svg width="24" height="24" viewBox="0 0 24 24" fill="none" xmlns="http://www.w3.org/2000/svg">
<path d="M18.32 4.25999C16.84 3.04999 15.01 2.24999 13 2.04999V4.06999C14.46 4.24999 15.79 4.82999 16.9 5.68999L18.32 4.25999ZM19.93 11H21.95C21.75 8.98999 20.95 7.15999 19.74 5.67999L18.31 7.09999C19.17 8.20999 19.75 9.53999 19.93 11ZM18.31 16.9L19.74 18.33C20.95 16.85 21.75 15.01 21.95 13.01H19.93C19.75 14.46 19.17 15.79 18.31 16.9ZM13 19.93V21.95C15.01 21.75 16.84 20.95 18.32 19.74L16.89 18.31C15.79 19.17 14.46 19.75 13 19.93ZM13 12V6.99999H11V12H7L12 17L17 12H13ZM11 19.93V21.95C5.95 21.45 2 17.19 2 12C2 6.80999 5.95 2.54999 11 2.04999V4.06999C7.05 4.55999 4 7.91999 4 12C4 16.08 7.05 19.44 11 19.93Z" fill="black"/>
</svg>
