<svg xmlns="http://www.w3.org/2000/svg" width="24" height="24" viewBox="0 0 24 24"><path d="M3.95122 22C3.41463 22 2.95512 21.809 2.57268 21.427C2.19089 21.0457 2 20.5871 2 20.0512V6.40926C2 5.87332 2.19089 5.41437 2.57268 5.0324C2.95512 4.65108 3.41463 4.46041 3.95122 4.46041H12.6585L10.7073 6.40926H3.95122V20.0512H17.6098V13.2789L19.561 11.3301V20.0512C19.561 20.5871 19.3701 21.0457 18.9883 21.427C18.6059 21.809 18.1463 22 17.6098 22H3.95122ZM14.8537 5.02071L16.2439 6.3849L9.80488 12.8161V14.2046H11.1707L17.6341 7.74909L19.0244 9.11328L12 16.1535H7.85366V12.0122L14.8537 5.02071ZM19.0244 9.11328L14.8537 5.02071L17.2927 2.58465C17.6829 2.19488 18.1506 2 18.6956 2C19.24 2 19.6992 2.19488 20.0732 2.58465L21.439 3.9732C21.813 4.34673 22 4.80146 22 5.33739C22 5.87332 21.813 6.32805 21.439 6.70158L19.0244 9.11328Z" fill="currentColor"/></svg>
