<svg xmlns="http://www.w3.org/2000/svg" width="24" height="24" viewBox="0 0 24 24"><g clip-path="url(#clip0_585_10470)"><path d="M5.90196 18.1004V11.2036L12.6621 4.44349H3.95098C2.87794 4.44349 2 5.32143 2 6.39447V20.0513C2 21.1244 2.87794 22.0023 3.95098 22.0023H17.6079C18.6809 22.0023 19.5588 21.1244 19.5588 20.0513V11.3402L12.7987 18.1004H5.90196Z" fill="currentColor"/><path d="M7.85294 16.1494H11.989L19.0126 9.1259L14.8765 4.98982L7.85294 12.0134V16.1494Z" fill="currentColor" /><path d="M21.422 3.9461L20.0466 2.57066C19.2857 1.80978 18.0468 1.80978 17.2859 2.57066L16.2519 3.60468L20.388 7.74076L21.422 6.70674C22.1926 5.94586 22.1926 4.70699 21.422 3.9461Z" fill="currentColor"/><circle cx="6.00001" cy="18" r="4.8" fill="white" /><path d="M4.44694 19.656L4.80049 20.0086L5.15355 19.6556L9.35275 15.4564L9.49414 15.5988L4.8 20.2929L2.50711 18L2.64649 17.8606L4.44694 19.656ZM6 11.5C2.41186 11.5 -0.5 14.4119 -0.5 18C-0.5 21.5881 2.41186 24.5 6 24.5C9.58814 24.5 12.5 21.5881 12.5 18C12.5 14.4119 9.58814 11.5 6 11.5Z" fill="currentColor" stroke="white"/></g><defs><clipPath id="clip0_585_10470"><rect width="24" height="24" fill="white" /></clipPath></defs></svg>
