<svg width="24" height="24" viewBox="0 0 24 24" fill="none" xmlns="http://www.w3.org/2000/svg">
<path fill-rule="evenodd" clip-rule="evenodd" d="M22 12C22 6.48 17.52 2 12 2C6.48 2 2 6.48 2 12C2 17.52 6.48 22 12 22C17.52 22 22 17.52 22 12Z" fill="#F0CC00"/>
<path d="M11.3201 7.75886C10.3401 8.73886 10.0801 10.1589 10.5101 11.3789L7.10007 14.7889C6.90007 14.9889 6.90007 15.2989 7.10007 15.4989L8.50007 16.8989C8.70007 17.0989 9.01007 17.0989 9.21007 16.8989L12.6201 13.4889C13.8401 13.9189 15.2601 13.6589 16.2401 12.6789C17.3501 11.5689 17.5401 9.89886 16.8301 8.57886L14.4801 10.9289L13.0701 9.51887L15.4201 7.16886C14.1101 6.45886 12.4301 6.64886 11.3201 7.75886Z" fill="#111111"/>
</svg>
