<svg width="24" height="24" viewBox="0 0 24 24" fill="none" xmlns="http://www.w3.org/2000/svg">
<path d="M20.45 5.41001L19.04 4.00001L17.25 5.80001L18.66 7.21001L20.45 5.41001ZM13 1.50001H11V4.45001H13V1.50001ZM20 13.45H23V11.45H20V13.45ZM9 17.64V22.45H15V17.64C16.79 16.6 18 14.67 18 12.45C18 9.14001 15.31 6.45001 12 6.45001C8.69 6.45001 6 9.14001 6 12.45C6 14.67 7.21 16.6 9 17.64ZM4 13.45V11.45L1 11.45V13.45L4 13.45ZM6.76 5.79001L4.97 3.99001L3.56 5.40001L5.36 7.19001L6.76 5.79001Z" fill="black"/>
</svg>
