<svg width="24" height="24" viewBox="0 0 24 24" fill="none" xmlns="http://www.w3.org/2000/svg">
<path fill-rule="evenodd" clip-rule="evenodd" d="M19 22H11.7453C12.1666 21.396 12.4951 20.7224 12.7101 20H16.825C16.725 19.7667 16.6458 19.5292 16.5875 19.2875C16.5292 19.0458 16.5 18.7833 16.5 18.5C16.5 18.2333 16.525 17.975 16.575 17.725C16.625 17.475 16.7083 17.2333 16.825 17H12.9291C12.6485 15.0384 11.5546 13.3391 10 12.2547V5C10 4.71667 9.90417 4.47917 9.7125 4.2875C9.52083 4.09583 9.28333 4 9 4C8.71667 4 8.47917 4.09583 8.2875 4.2875C8.09583 4.47917 8 4.71667 8 5V11.2899C7.36629 11.1013 6.69497 11 6 11C5.30503 11 4.63371 11.1013 4 11.2899V5.5C4 4.53333 4.34167 3.70833 5.025 3.025C5.70833 2.34167 6.53333 2 7.5 2H18C18.55 2 19.0208 2.19583 19.4125 2.5875C19.8042 2.97917 20 3.45 20 4V16.525C20 16.6583 19.9458 16.7792 19.8375 16.8875C19.7292 16.9958 19.5333 17.1167 19.25 17.25C19.0167 17.3667 18.8333 17.5333 18.7 17.75C18.5667 17.9667 18.5 18.2167 18.5 18.5C18.5 18.7833 18.5667 19.0375 18.7 19.2625C18.8333 19.4875 19.0167 19.65 19.25 19.75C19.4833 19.85 19.6667 19.9875 19.8 20.1625C19.9333 20.3375 20 20.525 20 20.725V20.975C20 21.2583 19.9042 21.5 19.7125 21.7C19.5208 21.9 19.2833 22 19 22ZM0 18C0 14.688 2.688 12 6 12C9.312 12 12 14.688 12 18C12 21.312 9.312 24 6 24C2.688 24 0 21.312 0 18ZM1.8 18L4.8 21L10.2 15.6L9.354 14.748L4.8 19.302L2.646 17.154L1.8 18Z" fill="#0D7D4D"/>
</svg>
