<svg width="24" height="24" viewBox="0 0 24 24" fill="none" xmlns="http://www.w3.org/2000/svg">
<path fill-rule="evenodd" clip-rule="evenodd" d="M20.0466 2.57066L21.422 3.9461C22.1926 4.70699 22.1926 5.94586 21.422 6.70674L20.388 7.74076L16.2519 3.60468L17.2859 2.57066C18.0468 1.80978 19.2857 1.80978 20.0466 2.57066ZM13 18C13 17.9665 12.9998 17.9331 12.9993 17.8997L19.5588 11.3402V20.0513C19.5588 21.1244 18.6809 22.0023 17.6079 22.0023H11.7437C12.5356 20.868 13 19.4883 13 18ZM6.10484 11.0008L12.6621 4.44349H3.95098C2.87794 4.44349 2 5.32143 2 6.39447V12.2547C3.13383 11.4638 4.51275 11 6 11C6.03501 11 6.06995 11.0003 6.10484 11.0008ZM8.43219 11.4341C10.3428 12.1421 11.8602 13.6602 12.5672 15.5713L19.0126 9.1259L14.8765 4.98982L8.43219 11.4341ZM0 18C0 14.688 2.688 12 6 12C9.312 12 12 14.688 12 18C12 21.312 9.312 24 6 24C2.688 24 0 21.312 0 18ZM1.8 18L4.8 21L10.2 15.6L9.354 14.748L4.8 19.302L2.646 17.154L1.8 18Z" fill="#0D7D4D"/>
</svg>
