<svg width="24" height="24" viewBox="0 0 24 24" fill="none" xmlns="http://www.w3.org/2000/svg">
<path fill-rule="evenodd" clip-rule="evenodd" d="M17.5556 10.25V6.16667C17.5556 5.525 17.0556 5 16.4444 5H3.11111C2.5 5 2 5.525 2 6.16667V12.2547C3.13383 11.4638 4.51275 11 6 11C9.86599 11 13 14.134 13 18C13 18.3395 12.9758 18.6734 12.9291 19H16.4444C17.0556 19 17.5556 18.475 17.5556 17.8333V13.75L22 18.4167V5.58333L17.5556 10.25ZM0 18C0 14.688 2.688 12 6 12C9.312 12 12 14.688 12 18C12 21.312 9.312 24 6 24C2.688 24 0 21.312 0 18ZM1.8 18L4.8 21L10.2 15.6L9.354 14.748L4.8 19.302L2.646 17.154L1.8 18Z" fill="#0D7D4D"/>
</svg>
