<svg width="24" height="24" viewBox="0 0 24 24" fill="none" xmlns="http://www.w3.org/2000/svg">
<path d="M11.9826 2C14.7804 2 17.1492 2.97048 19.0902 4.91082C21.0299 6.83957 22.0007 9.20197 22.0007 12.0002C22.0007 14.7984 21.0479 17.1431 19.1426 19.0358C17.1309 21.0122 14.7438 22.0004 11.9823 22.0004C9.27949 22.0004 6.93448 21.0183 4.94668 19.0535C2.98253 17.0897 2 14.7383 2 12.0005C2 9.2743 2.98253 6.91128 4.94668 4.91143C6.88763 2.97048 9.23295 2 11.9826 2ZM12.0191 3.80362C9.7455 3.80362 7.82225 4.60686 6.25072 6.21455C4.61937 7.86986 3.80408 9.7983 3.80408 12.0002C3.80408 14.2268 4.61342 16.143 6.23226 17.7504C7.8514 19.3697 9.77984 20.1787 12.0185 20.1787C14.2445 20.1787 16.1848 19.3636 17.8395 17.7324C19.4109 16.2086 20.1967 14.2982 20.1967 12.0002C20.1967 9.71498 19.3987 7.78624 17.8041 6.21455C16.2205 4.60686 14.2921 3.80362 12.0191 3.80362ZM15.7869 9.64266V11.3569H8.51883V9.64266H15.7869ZM15.7869 12.8574V14.5704H8.51883V12.8574H15.7869Z" fill="black"/>
</svg>
