<svg width="24" height="24" viewBox="0 0 24 24" fill="none" xmlns="http://www.w3.org/2000/svg">
<path d="M16.002 10.998C17.662 10.998 18.992 9.65805 18.992 7.99805C18.992 6.33805 17.662 4.99805 16.002 4.99805C14.342 4.99805 13.002 6.33805 13.002 7.99805C13.002 9.65805 14.342 10.998 16.002 10.998ZM8.00195 10.998C9.66195 10.998 10.992 9.65805 10.992 7.99805C10.992 6.33805 9.66195 4.99805 8.00195 4.99805C6.34195 4.99805 5.00195 6.33805 5.00195 7.99805C5.00195 9.65805 6.34195 10.998 8.00195 10.998ZM8.00195 12.998C5.67195 12.998 1.00195 14.168 1.00195 16.498V18.998H15.002V16.498C15.002 14.168 10.332 12.998 8.00195 12.998ZM16.002 12.998C15.712 12.998 15.382 13.018 15.032 13.048C16.192 13.888 17.002 15.018 17.002 16.498V18.998H23.002V16.498C23.002 14.168 18.332 12.998 16.002 12.998Z" fill="black"/>
</svg>
