<svg width="17" height="16" viewBox="0 0 17 16" fill="none" xmlns="http://www.w3.org/2000/svg">
<path d="M11.0718 7.33203C12.1784 7.33203 13.0651 6.4387 13.0651 5.33203C13.0651 4.22536 12.1784 3.33203 11.0718 3.33203C9.96511 3.33203 9.07178 4.22536 9.07178 5.33203C9.07178 6.4387 9.96511 7.33203 11.0718 7.33203ZM5.73844 7.33203C6.84511 7.33203 7.73178 6.4387 7.73178 5.33203C7.73178 4.22536 6.84511 3.33203 5.73844 3.33203C4.63178 3.33203 3.73844 4.22536 3.73844 5.33203C3.73844 6.4387 4.63178 7.33203 5.73844 7.33203ZM5.73844 8.66537C4.18511 8.66537 1.07178 9.44537 1.07178 10.9987V12.6654H10.4051V10.9987C10.4051 9.44537 7.29178 8.66537 5.73844 8.66537ZM11.0718 8.66537C10.8784 8.66537 10.6584 8.6787 10.4251 8.6987C11.1984 9.2587 11.7384 10.012 11.7384 10.9987V12.6654H15.7384V10.9987C15.7384 9.44537 12.6251 8.66537 11.0718 8.66537Z" fill="black"/>
</svg>
