<svg width="20" height="21" viewBox="0 0 20 21" fill="none" xmlns="http://www.w3.org/2000/svg">
<path d="M12.5998 3.26728V9.3344H4.07981L3.56844 9.84577L3.06574 10.3485V3.26728H12.5998ZM13.4665 1.53381H2.19901C1.7223 1.53381 1.33228 1.92384 1.33228 2.40054V14.5348L4.7992 11.0679H13.4665C13.9432 11.0679 14.3332 10.6778 14.3332 10.2011V2.40054C14.3332 1.92384 13.9432 1.53381 13.4665 1.53381ZM17.8002 5.00074H16.0667V12.8013H4.7992V14.5348C4.7992 15.0115 5.18923 15.4015 5.66593 15.4015H15.2L18.6669 18.8684V5.86747C18.6669 5.39077 18.2769 5.00074 17.8002 5.00074Z" fill="#00262B"/>
</svg>
