<svg width="29" height="28" viewBox="0 0 29 28" fill="none" xmlns="http://www.w3.org/2000/svg">
<g clip-path="url(#clip0_5714_503)">
<path d="M14.4038 1.33333C7.41152 1.33333 1.73714 7.00771 1.73714 14C1.73714 20.9923 7.41152 26.6667 14.4038 26.6667C21.3961 26.6667 27.0705 20.9923 27.0705 14C27.0705 7.00771 21.3961 1.33333 14.4038 1.33333Z" fill="#2D494E" stroke="white" stroke-width="2"/>
<path d="M13.2372 22.1667H15.5705V19.8333H13.2372V22.1667Z" fill="white"/>
<path d="M16.9355 14.1983L17.9855 13.125C18.6505 12.46 19.0705 11.5267 19.0705 10.5C19.0705 7.92166 16.9822 5.83333 14.4038 5.83333C11.8255 5.83333 9.73715 7.92166 9.73715 10.5H12.0705C12.0705 9.21666 13.1205 8.16666 14.4038 8.16666C15.6872 8.16666 16.7372 9.21666 16.7372 10.5C16.7372 11.1417 16.4805 11.725 16.0488 12.145L14.6022 13.615C13.7622 14.4667 13.2372 15.6333 13.2372 16.9167V17.5H15.5705C15.5705 15.75 16.0955 15.05 16.9355 14.1983Z" fill="white"/>
</g>
<defs>
<clipPath id="clip0_5714_503">
<rect width="28" height="28" fill="white" transform="translate(0.403809)"/>
</clipPath>
</defs>
</svg>
