<svg width="24" height="24" viewBox="0 0 24 24" fill="none" xmlns="http://www.w3.org/2000/svg">
<path d="M20.39 8.55983L19.15 10.4198C19.7432 11.6029 20.0336 12.9147 19.9952 14.2375C19.9568 15.5604 19.5908 16.8531 18.93 17.9998H5.06999C4.21115 16.5099 3.85528 14.7829 4.05513 13.0749C4.25497 11.3668 4.9999 9.76865 6.17946 8.51725C7.35903 7.26586 8.91045 6.42787 10.6037 6.12752C12.297 5.82718 14.042 6.08046 15.58 6.84983L17.44 5.60983C15.4695 4.33274 13.1125 3.78979 10.7819 4.0761C8.45132 4.36241 6.2958 5.45972 4.69304 7.17577C3.09028 8.89182 2.14252 11.1171 2.0158 13.4618C1.88909 15.8065 2.59151 18.121 3.99999 19.9998H20C21.2266 18.3611 21.9207 16.3854 21.9887 14.3396C22.0566 12.2938 21.4951 10.2764 20.38 8.55983H20.39Z" fill="black"/>
<path d="M10.59 15.4099C10.7757 15.5959 10.9963 15.7434 11.2391 15.844C11.4819 15.9447 11.7422 15.9965 12.005 15.9965C12.2678 15.9965 12.5281 15.9447 12.7709 15.844C13.0137 15.7434 13.2342 15.5959 13.42 15.4099L19.08 6.91992L10.59 12.5799C10.404 12.7657 10.2565 12.9862 10.1559 13.229C10.0552 13.4718 10.0034 13.7321 10.0034 13.9949C10.0034 14.2578 10.0552 14.518 10.1559 14.7608C10.2565 15.0036 10.404 15.2242 10.59 15.4099Z" fill="black"/>
</svg>
