<svg width="24" height="24" viewBox="0 0 24 24" fill="none" xmlns="http://www.w3.org/2000/svg">
<path d="M22 12C22 13.711 21.561 15.3934 20.725 16.8862C19.8889 18.379 18.6838 19.6324 17.225 20.5264C15.7661 21.4204 14.1023 21.9251 12.3926 21.9923C10.6829 22.0595 8.9846 21.6868 7.46009 20.9101C5.93559 20.1333 4.63588 18.9783 3.6853 17.5557C2.73472 16.1331 2.16507 14.4903 2.03083 12.7846C1.89658 11.0789 2.20224 9.36723 2.91857 7.8134C3.63489 6.25957 4.73792 4.91553 6.12215 3.90983L7.29772 5.52786C6.19034 6.33242 5.30792 7.40766 4.73486 8.65072C4.16179 9.89378 3.91727 11.2631 4.02466 12.6277C4.13206 13.9922 4.58778 15.3064 5.34824 16.4446C6.10871 17.5827 7.14847 18.5066 8.36808 19.1281C9.58768 19.7495 10.9463 20.0476 12.3141 19.9938C13.6818 19.9401 15.0129 19.5363 16.18 18.8211C17.3471 18.1059 18.3111 17.1032 18.98 15.909C19.6488 14.7147 20 13.3688 20 12H22Z" fill="black"/>
</svg>
