<svg xmlns="http://www.w3.org/2000/svg" width="24" height="24" viewBox="0 0 24 24"><g clip-path="url(#clip0_585_10462)"><path d="M17.5556 10.25V6.16667C17.5556 5.525 17.0556 5 16.4444 5H3.11111C2.5 5 2 5.525 2 6.16667V17.8333C2 18.475 2.5 19 3.11111 19H16.4444C17.0556 19 17.5556 18.475 17.5556 17.8333V13.75L22 18.4167V5.58333L17.5556 10.25Z" fill="currentColor"/><circle cx="6.00001" cy="18" r="4.8" fill="white" /><path d="M4.44694 19.656L4.80049 20.0086L5.15355 19.6556L9.35275 15.4564L9.49414 15.5988L4.8 20.2929L2.50711 18L2.64649 17.8606L4.44694 19.656ZM6 11.5C2.41186 11.5 -0.5 14.4119 -0.5 18C-0.5 21.5881 2.41186 24.5 6 24.5C9.58814 24.5 12.5 21.5881 12.5 18C12.5 14.4119 9.58814 11.5 6 11.5Z" fill="currentColor" stroke="white"/></g><defs><clipPath id="clip0_585_10462"><rect width="24" height="24" fill="white" /></clipPath></defs></svg>
